<svg width="109" height="133" viewBox="0 0 109 133" fill="none" xmlns="http://www.w3.org/2000/svg">
<path d="M50.9686 5.35415C55.4185 -1.7464 66.1045 -0.553069 68.8784 7.35418L107.975 118.803C110.775 126.783 103.021 134.419 95.0851 131.498L6.56195 98.9169C0.602437 96.7235 -1.82981 89.603 1.54242 84.222L50.9686 5.35415Z" fill="black"/>
<path d="M54.2393 102.128C48.9756 102.128 44.3923 100.91 40.4893 98.4756C36.5863 96.0049 33.5605 92.5853 31.4121 88.2168C29.2637 83.8483 28.1895 78.7995 28.1895 73.0703V70.8145C28.1895 65.3001 29.2279 60.3587 31.3047 55.9902C33.3815 51.6217 36.3714 48.1663 40.2744 45.624C44.1774 43.0817 48.8324 41.8105 54.2393 41.8105C58.93 41.8105 63.0299 42.5804 66.5391 44.1201C70.084 45.6598 73.056 47.7725 75.4551 50.458L75.7236 64.4229H67.4521L65.626 54.2715C64.4085 53.0182 62.8867 52.0156 61.0605 51.2637C59.2344 50.5117 57.0859 50.1357 54.6152 50.1357C51.4642 50.1357 48.6891 51.0667 46.29 52.9287C43.9268 54.7907 42.0827 57.2793 40.7578 60.3945C39.4329 63.5098 38.7705 66.9831 38.7705 70.8145V73.0703C38.7705 79.444 40.1491 84.5107 42.9062 88.2705C45.6634 91.9945 49.4232 93.8564 54.1855 93.8564C57.7663 93.8564 60.7383 92.8717 63.1016 90.9023C65.4648 88.9329 66.915 86.2295 67.4521 82.792H76.959L77.0664 83.1143C76.8874 86.4443 75.9027 89.5596 74.1123 92.46C72.3219 95.3604 69.7617 97.7057 66.4316 99.4961C63.1374 101.251 59.0732 102.128 54.2393 102.128Z" fill="white"/>
<path d="M85.2406 101.955C85.2406 103.29 84.7601 104.491 83.7992 105.559C82.8383 106.626 81.7172 107.16 80.4359 107.16C76.9659 107.16 75.2308 105.585 75.2308 102.436C75.2308 100.994 75.7113 99.7663 76.6722 98.752C77.6866 97.6842 78.9144 97.1504 80.3558 97.1504C81.7972 97.1504 82.9717 97.6042 83.8793 98.5117C84.7868 99.3659 85.2406 100.514 85.2406 101.955Z" fill="#863FCE"/>
</svg>
